<svg xmlns="http://www.w3.org/2000/svg" viewBox="0 0 200 200" role="img" aria-label="Secret Codes monogram">
  <title>Secret Codes</title>
  <rect x="10" y="10" width="180" height="180" fill="none" stroke="currentColor" stroke-width="2"></rect>
  <g stroke="currentColor" stroke-width="0.8" opacity="0.35">
    <line x1="10" y1="32.5" x2="190" y2="32.5"></line>
    <line x1="10" y1="55" x2="190" y2="55"></line>
    <line x1="10" y1="77.5" x2="190" y2="77.5"></line>
    <line x1="10" y1="100" x2="190" y2="100"></line>
    <line x1="10" y1="122.5" x2="190" y2="122.5"></line>
    <line x1="10" y1="145" x2="190" y2="145"></line>
    <line x1="10" y1="167.5" x2="190" y2="167.5"></line>
    <line x1="32.5" y1="10" x2="32.5" y2="190"></line>
    <line x1="55" y1="10" x2="55" y2="190"></line>
    <line x1="77.5" y1="10" x2="77.5" y2="190"></line>
    <line x1="100" y1="10" x2="100" y2="190"></line>
    <line x1="122.5" y1="10" x2="122.5" y2="190"></line>
    <line x1="145" y1="10" x2="145" y2="190"></line>
    <line x1="167.5" y1="10" x2="167.5" y2="190"></line>
  </g>
  <g font-family="&#39;JetBrains Mono&#39;, monospace" font-size="8" fill="currentColor" opacity="0.55">
    <text x="32.5" y="6" text-anchor="middle">A</text>
    <text x="55" y="6" text-anchor="middle">B</text>
    <text x="77.5" y="6" text-anchor="middle">C</text>
    <text x="100" y="6" text-anchor="middle">D</text>
    <text x="122.5" y="6" text-anchor="middle">E</text>
    <text x="145" y="6" text-anchor="middle">F</text>
    <text x="167.5" y="6" text-anchor="middle">G</text>
    <text x="5" y="24" text-anchor="middle">1</text>
    <text x="5" y="46.5">2</text>
    <text x="5" y="69">3</text>
    <text x="5" y="91.5">4</text>
    <text x="5" y="114">5</text>
    <text x="5" y="136.5">6</text>
    <text x="5" y="159">7</text>
    <text x="5" y="181.5">8</text>
  </g>
  
  <circle cx="43.75" cy="32.5" r="4" fill="currentColor"></circle>
  <circle cx="66.25" cy="32.5" r="4" fill="currentColor"></circle>
  <circle cx="88.75" cy="32.5" r="4" fill="currentColor"></circle>
  <circle cx="43.75" cy="55" r="4" fill="currentColor"></circle>
  <circle cx="43.75" cy="77.5" r="4" fill="currentColor"></circle>
  <circle cx="66.25" cy="77.5" r="4" fill="currentColor"></circle>
  <circle cx="88.75" cy="77.5" r="4" fill="currentColor"></circle>
  <circle cx="88.75" cy="100" r="4" fill="currentColor"></circle>
  <circle cx="43.75" cy="122.5" r="4" fill="currentColor"></circle>
  <circle cx="66.25" cy="122.5" r="4" fill="currentColor"></circle>
  <circle cx="88.75" cy="122.5" r="4" fill="currentColor"></circle>
  
  <circle cx="133.75" cy="32.5" r="4" fill="currentColor"></circle>
  <circle cx="156.25" cy="32.5" r="4" fill="currentColor"></circle>
  <circle cx="178.75" cy="32.5" r="4" fill="currentColor"></circle>
  <circle cx="133.75" cy="55" r="4" fill="currentColor"></circle>
  <circle cx="133.75" cy="77.5" r="4" fill="currentColor"></circle>
  <circle cx="133.75" cy="100" r="4" fill="currentColor"></circle>
  <circle cx="133.75" cy="122.5" r="4" fill="var(--sc-accent, #D84C2F)"></circle>
  <circle cx="156.25" cy="122.5" r="4" fill="currentColor"></circle>
  <circle cx="178.75" cy="122.5" r="4" fill="currentColor"></circle>
  
  <g stroke="var(--sc-accent, #D84C2F)" stroke-width="1.2" opacity="0.9">
    <line x1="100" y1="172" x2="100" y2="188"></line>
    <line x1="92" y1="180" x2="108" y2="180"></line>
  </g>
  <text x="100" y="198" text-anchor="middle" font-family="&#39;JetBrains Mono&#39;, monospace" font-size="7" letter-spacing="2" fill="currentColor" opacity="0.6">SECRET CODES</text>
</svg>